<svg xmlns="http://www.w3.org/2000/svg" viewBox="0 0 265.86 214.77"><defs><style>.cls-1{fill:#33503c;}</style></defs><g id="Layer_2" data-name="Layer 2"><g id="Layer_1-2" data-name="Layer 1"><path class="cls-1" d="M265.69,193.26l-8.83-1.33-8.77-1.69-8.72-1.94-8.68-2.2a313.91,313.91,0,0,1-33.86-11.65l-8.25-3.51-8.11-3.83-8-4.06-7.89-4.28a328.62,328.62,0,0,1-30.3-19.22,332.52,332.52,0,0,1-27.76-22.74L100,110.66l-6.37-6.32-6.18-6.5L81.51,91.1A313.15,313.15,0,0,1,59.82,62.61L55,55.07l-4.58-7.68L46.07,39.6l-4-8a.16.16,0,0,1,.06-.21.15.15,0,0,1,.2.06C65,73.23,97.55,109.38,136,137.12S219,184.51,265.74,193a.15.15,0,0,1,.12.18A.15.15,0,0,1,265.69,193.26Z"/><path class="cls-1" d="M69.33,73.38A206.88,206.88,0,0,1,4.12,59.18C25.87,55.57,50.8,61.45,69.33,73.38Z"/><path class="cls-1" d="M55.82,52.65A178.38,178.38,0,0,1,0,41.89C18.75,38.51,40.08,43,55.82,52.65Z"/><path class="cls-1" d="M79.41,87.23a207.15,207.15,0,0,1-66.6-4.43C33.79,76,59.32,78.16,79.41,87.23Z"/><path class="cls-1" d="M93.19,100.15a207.05,207.05,0,0,1-66.39,6.78C46.34,96.73,71.87,94.57,93.19,100.15Z"/><path class="cls-1" d="M104.8,111.8a207,207,0,0,1-65.28,13.87C57.86,113.43,83,108.54,104.8,111.8Z"/><path class="cls-1" d="M116.85,125a207.27,207.27,0,0,1-65.24,14.06C69.91,126.78,95,121.82,116.85,125Z"/><path class="cls-1" d="M128.16,133.25a207,207,0,0,1-63.63,20.13C81.6,139.43,106.15,132.12,128.16,133.25Z"/><path class="cls-1" d="M143.4,144.73a206.9,206.9,0,0,1-63.63,20.14C96.83,150.91,121.38,143.61,143.4,144.73Z"/><path class="cls-1" d="M159.61,153.91A207,207,0,0,1,96,174C113.05,160.09,137.6,152.78,159.61,153.91Z"/><path class="cls-1" d="M177.5,164.71a206.9,206.9,0,0,1-63.63,20.14C130.93,170.89,155.48,163.59,177.5,164.71Z"/><path class="cls-1" d="M192.94,169.14a207.18,207.18,0,0,1-59.37,30.49C148.06,183,171,171.71,192.94,169.14Z"/><path class="cls-1" d="M209.06,178.11a207.21,207.21,0,0,1-59.37,30.5C164.18,192,187.16,180.69,209.06,178.11Z"/><path class="cls-1" d="M227.29,184.27a207.21,207.21,0,0,1-59.37,30.5C182.41,198.15,205.39,186.84,227.29,184.27Z"/><path class="cls-1" d="M67.26,72.53A207.19,207.19,0,0,0,58.37,6.38C53,27.77,56.86,53.09,67.26,72.53Z"/><path class="cls-1" d="M55.47,53.27A178.7,178.7,0,0,0,35.62,0C35.39,19.05,43.35,39.35,55.47,53.27Z"/><path class="cls-1" d="M79.41,87.23A207,207,0,0,0,78,20.5C70.3,41.15,71.27,66.74,79.41,87.23Z"/><path class="cls-1" d="M89.63,98.61a207.26,207.26,0,0,0,7-66.37C86.37,51.75,84.12,77.27,89.63,98.61Z"/><path class="cls-1" d="M101.13,110.68a207.17,207.17,0,0,0,11.18-65.79C100.84,63.71,97,89,101.13,110.68Z"/><path class="cls-1" d="M111.88,120.08a207.27,207.27,0,0,0,13.53-65.35C113.27,73.13,108.51,98.3,111.88,120.08Z"/><path class="cls-1" d="M122.94,130.48a206.82,206.82,0,0,0,17.64-64.37C127.31,83.71,121,108.52,122.94,130.48Z"/><path class="cls-1" d="M144.36,145.67a207,207,0,0,0,7-66.38C141.07,98.81,138.84,124.32,144.36,145.67Z"/><path class="cls-1" d="M160.74,156.15a206.93,206.93,0,0,0,9.32-66.08C159.13,109.21,156,134.63,160.74,156.15Z"/><path class="cls-1" d="M172.44,162.17a207.16,207.16,0,0,0,15.47-64.92C175.23,115.28,169.72,140.29,172.44,162.17Z"/><path class="cls-1" d="M192.76,170.1a207.32,207.32,0,0,0,11.53-65.74C192.72,123.13,188.73,148.43,192.76,170.1Z"/><path class="cls-1" d="M204.57,178.41a207.3,207.3,0,0,0,20.25-63.6C210.83,131.85,203.48,156.39,204.57,178.41Z"/><path class="cls-1" d="M222.25,184.61A207,207,0,0,0,242.5,121C228.51,138.05,221.16,162.59,222.25,184.61Z"/></g></g></svg>