<svg xmlns="http://www.w3.org/2000/svg" xmlns:xlink="http://www.w3.org/1999/xlink" viewBox="0 0 89.09 61.36"><defs><style>.cls-1{fill:#094156;}.cls-2{isolation:isolate;}.cls-3{opacity:0.5;mix-blend-mode:multiply;}.cls-4{fill:#333;}.cls-5{fill:#fff;}.cls-6{clip-path:url(#clip-path);}.cls-7{fill:#f3c480;}.cls-8{fill:#00180b;}.cls-9{fill:#f7f5f4;}</style><clipPath id="clip-path" transform="translate(0.66)"><rect class="cls-1" x="18.44" y="-6.28" width="39.79" height="69.02" rx="6.67" transform="translate(6.87 63.96) rotate(-85)"/></clipPath></defs><g class="cls-2"><g id="Layer_2" data-name="Layer 2"><g id="Layer_1-2" data-name="Layer 1"><g class="cls-3"><path class="cls-4" d="M78.33,47.66l2.3-26.36a9.43,9.43,0,0,0-8-10.16l-.54-.07-9.54-.83.09-1.05a2.78,2.78,0,0,0-2.36-3l-.16,0L40.65,4.48a2.8,2.8,0,0,0-2,.61l-3.4,2.76-.92-.08a4.7,4.7,0,0,0-4-4.18l-.27,0L23.92,3A4.69,4.69,0,0,0,19,6.43l-2.42-.21A9.44,9.44,0,0,0,6.34,14.8L4,41.16a9.44,9.44,0,0,0,8,10.17,5.14,5.14,0,0,0,.55.06L68.1,56.24A9.45,9.45,0,0,0,78.33,47.66Z" transform="translate(0.66)"/></g><path class="cls-5" d="M74.33,44.66l2.3-26.36a9.43,9.43,0,0,0-8-10.16l-.54-.07-9.54-.83.09-1a2.78,2.78,0,0,0-2.36-3l-.16,0L36.65,1.48a2.8,2.8,0,0,0-2,.61l-3.4,2.76-.92-.08a4.7,4.7,0,0,0-4-4.18l-.27,0L19.92,0A4.69,4.69,0,0,0,15,3.43l-2.42-.21A9.44,9.44,0,0,0,2.34,11.8L0,38.16a9.44,9.44,0,0,0,8,10.17,5.14,5.14,0,0,0,.55.06L64.1,53.24A9.45,9.45,0,0,0,74.33,44.66Z" transform="translate(0.66)"/><rect class="cls-1" x="18.44" y="-6.28" width="39.79" height="69.02" rx="6.67" transform="translate(7.53 63.96) rotate(-85)"/><g class="cls-6"><rect class="cls-7" x="36.09" y="-28.57" width="13.47" height="86.13" transform="translate(25.32 55.89) rotate(-85)"/><rect class="cls-7" x="38.2" y="7.84" width="13.47" height="86.13" transform="translate(-9.02 91.23) rotate(-85)"/></g><path class="cls-8" d="M48.05,32.72A12.25,12.25,0,1,1,36.92,19.45,12.24,12.24,0,0,1,48.05,32.72Z" transform="translate(0.66)"/><circle class="cls-9" cx="35.85" cy="31.65" r="7.97" transform="translate(-11.3 30.88) rotate(-40.51)"/><path class="cls-8" d="M64.08,27.62l-3.89-.34a4.1,4.1,0,0,1-3.72-4.43h0a4.1,4.1,0,0,1,4.43-3.72l3.89.34a4.1,4.1,0,0,1,3.72,4.43h0A4.09,4.09,0,0,1,64.08,27.62Z" transform="translate(0.66)"/><rect class="cls-8" x="31.89" y="8.27" width="5.3" height="10.14" transform="translate(18.9 46.6) rotate(-85)"/><rect class="cls-8" x="42.04" y="10.96" width="5.3" height="6.55" transform="translate(27.28 57.52) rotate(-85)"/><path class="cls-8" d="M25.5,7.14,19.34,6.6A1.92,1.92,0,0,1,17.6,4.52h0a1.91,1.91,0,0,1,2.07-1.74l6.17.54A1.92,1.92,0,0,1,27.58,5.4h0A1.92,1.92,0,0,1,25.5,7.14Z" transform="translate(0.66)"/><polygon class="cls-1" points="32.8 7.72 37.07 4.25 56.5 5.95 56.16 9.76 32.8 7.72"/></g></g></g></svg>