<svg xmlns="http://www.w3.org/2000/svg" viewBox="0 0 213.02 250.62"><defs><style>.cls-1{opacity:0.3;}.cls-2{fill:#33503c;}</style></defs><g id="Layer_2" data-name="Layer 2"><g id="Layer_1-2" data-name="Layer 1"><g class="cls-1"><path class="cls-2" d="M1.08,250.33l7.71-4.45,7.62-4.59,7.47-4.8,7.32-5a317.78,317.78,0,0,0,28-21.68l6.6-5.89,6.5-6,6.34-6.16,6.18-6.33a327.78,327.78,0,0,0,22.89-26.91,326.15,326.15,0,0,0,20.23-29L132.5,122l4.34-7.7,4.16-7.81,4-7.88A317,317,0,0,0,158.9,66l3-8.35,2.76-8.45,2.51-8.53,2.35-8.59h0a.15.15,0,0,1,.29.07C160,78.68,139.08,122.7,110.08,160.35S43.73,229.3,1.22,250.6a.14.14,0,0,1-.2-.06.15.15,0,0,1,.05-.2Z"/><path class="cls-2" d="M152.53,79.41A207.19,207.19,0,0,0,211,47.28C189.15,50,166.91,62.71,152.53,79.41Z"/><path class="cls-2" d="M162.55,56.21A178.2,178.2,0,0,0,213,30.06C194.08,32.14,174.9,42.5,162.55,56.21Z"/><path class="cls-2" d="M146.8,95.54a206.84,206.84,0,0,0,62.6-23.15C187.36,71.85,163.49,81.15,146.8,95.54Z"/><path class="cls-2" d="M137.25,111.85A206.85,206.85,0,0,0,202.83,99.5C181.2,95.27,156.11,100.45,137.25,111.85Z"/><path class="cls-2" d="M129.42,126.31A206.92,206.92,0,0,0,196,121.08C174.9,114.56,149.4,117,129.42,126.31Z"/><path class="cls-2" d="M121.62,142.4a207,207,0,0,0,66.55-5C167.13,130.78,141.63,133.15,121.62,142.4Z"/><path class="cls-2" d="M113.1,153.5a206.69,206.69,0,0,0,66.73,1.25C159.51,146.22,133.89,146.18,113.1,153.5Z"/><path class="cls-2" d="M101.76,168.84a207,207,0,0,0,66.73,1.25C148.16,161.55,122.55,161.52,101.76,168.84Z"/><path class="cls-2" d="M88.81,182.24a207,207,0,0,0,66.73,1.25C135.22,175,109.6,174.91,88.81,182.24Z"/><path class="cls-2" d="M74.73,197.68a207.25,207.25,0,0,0,66.73,1.25C121.13,190.39,95.52,190.35,74.73,197.68Z"/><path class="cls-2" d="M61.18,206.3a207.14,207.14,0,0,0,65.58,12.4C108.15,206.88,82.9,202.56,61.18,206.3Z"/><path class="cls-2" d="M48.27,219.48a206.86,206.86,0,0,0,65.58,12.4C95.24,220.06,70,215.74,48.27,219.48Z"/><path class="cls-2" d="M32.54,230.56A207.14,207.14,0,0,0,98.12,243C79.51,231.14,54.26,226.82,32.54,230.56Z"/><path class="cls-2" d="M154.27,78A207.11,207.11,0,0,1,144,12.05C155.23,31,158.73,56.41,154.27,78Z"/><path class="cls-2" d="M163.07,56.71A178.45,178.45,0,0,1,167,0C172.6,18.2,170.73,39.92,163.07,56.71Z"/><path class="cls-2" d="M146.8,95.54a207.06,207.06,0,0,1-17.62-64.37C142.45,48.77,148.79,73.59,146.8,95.54Z"/><path class="cls-2" d="M140.22,109.36A207.3,207.3,0,0,1,114.68,47.7C130.05,63.5,139.45,87.33,140.22,109.36Z"/><path class="cls-2" d="M132.62,124.2a207.17,207.17,0,0,1-29.39-59.92C119.57,79.07,130.46,102.26,132.62,124.2Z"/><path class="cls-2" d="M125,136.26A207,207,0,0,1,93.47,77.43C110.33,91.63,122,114.42,125,136.26Z"/><path class="cls-2" d="M117.32,149.37A207.19,207.19,0,0,1,82.14,92.66C99.87,105.76,113,127.76,117.32,149.37Z"/><path class="cls-2" d="M101.1,170a207,207,0,0,1-25.51-61.67C91,124.14,100.34,148,101.1,170Z"/><path class="cls-2" d="M88.37,184.72A207.1,207.1,0,0,1,60.67,124C76.59,139.24,86.82,162.73,88.37,184.72Z"/><path class="cls-2" d="M78.85,193.8A207.16,207.16,0,0,1,45.6,135.94C62.87,149.63,75.25,172.06,78.85,193.8Z"/><path class="cls-2" d="M61.62,207.18a207.07,207.07,0,0,1-29.7-59.77C48.34,162.12,59.34,185.25,61.62,207.18Z"/><path class="cls-2" d="M52.66,218.49a207.17,207.17,0,0,1-37.47-55.23C33.44,175.63,47.45,197.07,52.66,218.49Z"/><path class="cls-2" d="M37.46,229.45A207,207,0,0,1,0,174.22C18.25,186.59,32.26,208,37.46,229.45Z"/></g></g></g></svg>