<svg xmlns="http://www.w3.org/2000/svg" viewBox="0 0 194.99 65.47"><defs><style>.cls-1{opacity:0.7;}.cls-2{fill:#ffe34f;}.cls-3{fill:#fff;}</style></defs><g id="Layer_2" data-name="Layer 2"><g id="Layer_1-2" data-name="Layer 1"><g class="cls-1"><path class="cls-2" d="M20.37,5.75,188.8.36a4.62,4.62,0,0,1,4.77,4.54l.93,55.65a4.62,4.62,0,0,1-8,3.22l-11-11.83a4.58,4.58,0,0,0-3.31-1.48L5.31,47.79a4.61,4.61,0,0,1-4.12-6.55L16.33,8.43A4.6,4.6,0,0,1,20.37,5.75Z"/><path class="cls-3" d="M19.72,5.2c.8-.08.51-.14.63-.18C19,5.19,19.77,5.24,19.72,5.2Z"/><polygon class="cls-3" points="13 14.76 13.05 14.56 12.42 16.17 13 14.76"/><path class="cls-3" d="M8.41,24.69c.6-.86,1.64-3.61,2.51-5.35l.17-.27.24-.86C10.36,20.37,9.16,23.2,8.41,24.69Z"/><path class="cls-3" d="M5.62,29.83c.21-.3-.47,1.17.59-1.23l-.12.22C6,29,5.85,29.32,5.62,29.83Z"/><path class="cls-3" d="M6.09,28.82c.48-1.05-.37.66,0,0Z"/><path class="cls-3" d="M3.9,33.66l.58-1.4c-.17.27-.75,1.49-.56,1C3.29,34.71,3.47,34.44,3.9,33.66Z"/><path class="cls-3" d="M3.41,35l.31-.72A3.46,3.46,0,0,0,3.41,35Z"/><path class="cls-3" d="M4.37,32.76,3.72,34.3a1.44,1.44,0,0,0,.3-.71C4,33.74,4.1,33.42,4.37,32.76Z"/><path class="cls-3" d="M4.79,31.92c.39-.76.87-1.75.29-.34C6.27,28.93,6,29.27,4.79,31.92Z"/><path class="cls-3" d="M8.35,25.28l.52-1,.36-.92C9.05,23.81,8.27,25.32,8.35,25.28Z"/><path class="cls-3" d="M0,42.51c0,.06.05-.08.1-.26l.18-.42a8.43,8.43,0,0,1,.4-1.17,8.33,8.33,0,0,0-.46,1.08C.09,42.14,0,42.47,0,42.51Z"/><path class="cls-3" d="M.28,41.83a5.06,5.06,0,0,0-.08,1.9,5.65,5.65,0,0,1,.07-1.62C.32,41.84.32,41.79.28,41.83Z"/><polygon class="cls-3" points="3.48 35.35 4.51 32.79 3.26 35.83 3.48 35.35"/><path class="cls-3" d="M3.75,48.35A5.61,5.61,0,0,1,2.68,48a6,6,0,0,0,1.92.52A8.46,8.46,0,0,1,3.75,48.35Z"/><path class="cls-3" d="M8.2,48.64c-.7.06,1,.14.22.17,1.15,0,2.14,0,3-.08C10.5,48.74,9.5,48.72,8.2,48.64Z"/><path class="cls-3" d="M12.94,48.67l-1.49.06C12,48.72,12.44,48.7,12.94,48.67Z"/><path class="cls-3" d="M1.47,46.64a3,3,0,0,0,1.07,1A4.51,4.51,0,0,1,2,47.16,3.69,3.69,0,0,1,1.47,46.64Z"/><path class="cls-3" d="M2,47.14l0,0A5.25,5.25,0,0,0,3.37,48,5,5,0,0,1,2,47.14Z"/><path class="cls-3" d="M1.34,46.5l.13.14A.44.44,0,0,0,1.34,46.5Z"/><path class="cls-3" d="M1.55,39.3c-.36.92-1.16,2.81-.25,1.05C1.53,39.67,1,40.68,1.55,39.3Z"/><path class="cls-3" d="M.94,45.66a5,5,0,0,1-.59-1.85s0,.4-.11-.13A4.89,4.89,0,0,0,.94,45.66Z"/><path class="cls-3" d="M1.51,46.43a5,5,0,0,1-.57-.77,6.49,6.49,0,0,0,.39.62Z"/><path class="cls-3" d="M9.89,48.52c.77,0,1.61,0,2.56,0l-3.07-.08C9.24,48.45,8.8,48.5,9.89,48.52Z"/><path class="cls-3" d="M6.1,48.43h.17C6.17,48.41,6.08,48.41,6.1,48.43Z"/><path class="cls-3" d="M21.81,48.65l-.15,0,0,0Z"/><path class="cls-3" d="M9.21,48.4a12.46,12.46,0,0,0-1.66,0H9.38C9.44,48.41,9.45,48.4,9.21,48.4Z"/><path class="cls-3" d="M15.55,48.66l-1.33-.08A12.93,12.93,0,0,0,15.55,48.66Z"/><path class="cls-3" d="M6.53,48.46H6.42C6.67,48.49,6.64,48.48,6.53,48.46Z"/><path class="cls-3" d="M6.53,48.46l1-.05-1.28,0Z"/><path class="cls-3" d="M24.65,48a18.42,18.42,0,0,1-3.89,0c-1.71,0-.59.39.9.6.05,0,.05-.08,1.81-.11-.61-.07-3.9-.19-2.42-.26a21.07,21.07,0,0,1,3.05.14c-1-.14,3-.13,2.46-.32l-2,0S25.22,48.05,24.65,48Z"/><path class="cls-3" d="M18.3,48.57h-.72c.82,0,1.41.08,2.5.17a8.44,8.44,0,0,0,1.54-.09l-3.56-.07Z"/><path class="cls-3" d="M14.33,48.52c.57-.1,2.31-.12,1.24-.25a27.48,27.48,0,0,0-2.76.09c3.43,0-1,0,1.49.14H12.45l1.77.08h-.09c-.15,0-.2,0,0,0h.07l.16,0c1,0,.15,0-.16,0l0,0h3.45C16.85,48.54,15.94,48.53,14.33,48.52Z"/><path class="cls-3" d="M.85,42.15c0,.1,0,.1,0,.1C.76,42.48.75,42.56.85,42.15Z"/><path class="cls-3" d="M.67,43.57a3.44,3.44,0,0,1,0-1.3c.21-.7.05,0,.1,0A7.06,7.06,0,0,1,1,41.41c.06-.17,0-.12-.28.64l0,.25a5.19,5.19,0,0,0,0,2.15c.13.61.3,1,.23.88A8.19,8.19,0,0,1,.67,43.57Z"/><path class="cls-3" d="M6.52,48.13H9.38L7.93,48l.07.06C6.37,48,6.72,48.09,6.52,48.13Z"/><polygon class="cls-3" points="22.13 48.71 21.75 48.82 23.41 48.68 22.13 48.71"/><polygon class="cls-3" points="25.85 48.76 25.71 48.85 26.69 48.81 25.85 48.76"/><path class="cls-3" d="M193.36,28.16l0-.84C193.34,27.72,193.36,28,193.36,28.16Z"/><path class="cls-3" d="M193.46,34.25l0,.15C193.48,34.11,193.46,34,193.46,34.25Z"/><path class="cls-3" d="M117.14,50.2a12.2,12.2,0,0,0,2.44.17l-.38-.12C118.35,50.26,117.69,50.24,117.14,50.2Z"/><path class="cls-3" d="M178.08,54.65l-.22-.28-.64-.54Z"/><path class="cls-3" d="M179,55l1,1.23C179.81,55.93,179.47,55.53,179,55Z"/><path class="cls-3" d="M186.17,1.16l-1,.14C186.73,1.25,186.05,1.22,186.17,1.16Z"/><path class="cls-3" d="M63.92,49.32c1,.06,1.89.09,2.63.11A17.76,17.76,0,0,0,63.92,49.32Z"/><path class="cls-3" d="M194.56,30.54a2.45,2.45,0,0,0-.08-.72C194.51,30.35,194.53,30.65,194.56,30.54Z"/><path class="cls-3" d="M69.6,49.48l-.55,0c-.78,0-1.55,0-2.5,0A25.55,25.55,0,0,0,69.6,49.48Z"/><path class="cls-3" d="M65.7,4.92h-.28S65.52,4.93,65.7,4.92Z"/><path class="cls-3" d="M30.56,4.94,32,4.89Z"/><path class="cls-3" d="M40.8,49c-.78,0-.12,0,0,0Z"/><path class="cls-3" d="M37,48.55c.17,0,.29,0,.31,0A1,1,0,0,1,37,48.55Z"/><path class="cls-3" d="M77.47,48.93h.07C77.3,48.91,77.34,48.91,77.47,48.93Z"/><path class="cls-3" d="M39.62,49l1,.05Z"/><path class="cls-3" d="M39.78,49l-.69,0C39,49,39.08,49,39.78,49Z"/><path class="cls-3" d="M41.9,49.05l-1.27,0,.17,0Z"/><path class="cls-3" d="M130.24,2.56h-.17C129.27,2.63,129.62,2.61,130.24,2.56Z"/><path class="cls-3" d="M137.67,49.4h0Z"/><path class="cls-3" d="M140.5,49.37a16.7,16.7,0,0,1-2.8,0l.93.33Z"/><path class="cls-3" d="M193.09,13.59l-.06,2c-.2-2.39-.18-4.13-.28-2.26.34.27.16,7.73.5,8l-.05,1.31c0-.38,0-.44,0-.81-.12,2.55.27,1.89.28,5.18,0,1.14,0,1.94-.1,1.16l.13,2.55c0,.74-.05.56-.06-.18l.09,3.89v0c.06.55.17,1.81.21,2.42,0,1,0-.5-.08-.24l.12,2.15c-.08.88-.19-.9-.2-2.39-.31,2,.11,1.78,0,6.13l-.08-2c-.17,1.31-.07,2.9-.16,5.2.06-.55.23-4.61.35-2.28,0,.66,0,1.53.08,2.79a12.64,12.64,0,0,0,0,2.79l-.16-.1a24,24,0,0,0,.24,2.51,9.15,9.15,0,0,1-.2,2.68c0,3,.17-2.06.26,1.46,0,1.24,0,2.29,0,3.4,0,.56.05,1.12.07,1.74a4.37,4.37,0,0,1-.31,1.76c-.81,1.3.05-.27-.26.18a2.52,2.52,0,0,1-.32.58,2.79,2.79,0,0,1-.42.54c-.25.22-.19.12-.17.06a2.31,2.31,0,0,0-.52.49,2.48,2.48,0,0,1-1.11.54,3.38,3.38,0,0,1-2.36-.15,4.79,4.79,0,0,1-1.51-1c-.47-.48-1-1-1.42-1.43s.28.15.19,0c-2.44-2.44-2.08-2.11-4.14-4.07L180,56.21c1.12,1.39-.53-.18-2-1.56l.94,1.21L176.8,53.6c-.24-.3,0-.1.42.23l-.42-.4c-.73-.87-.26-.5.35,0l.71.91c.6.51,1.18,1,1.13.79s-.43-.42-.73-.74c.16.14.26.22.21.14a8.18,8.18,0,0,0-.69-.66l-.36-.65-.17-.08-1.37-1.56A5.25,5.25,0,0,0,174,50.28a5.77,5.77,0,0,0-2.34-.22l-2.28.11c-1.61.08-3.43.13-5.79.13,1.17-.11.26-.21.32-.36,1.29.18,3.65,0,6.09.06-1.27,0-1-.11-.67-.13L165,50c.1-.12-.92-.11-2.06-.18.86.26-3.24.12-5,.16-.1-.08.32-.16,2.48-.11-2.38-.22-3.08.25-5.42,0a6.18,6.18,0,0,0,1,0,19.7,19.7,0,0,1-3.53-.12H153c-3.5-.09-10.65-.17-11.18,0a2,2,0,0,1,.68-.29l-6.26.62c.55-.18-1.55-.64,1.35-.7-.83,0-1.86-.09-3.62,0,.57,0,1.41.29.63.29-2.12-.24-1.47-.13-4.1-.35.85.05-.1.33-1.45.3.21,0-.1-.29.39-.31l-3.36.23c.84,0,.15-.24-.6-.33.35.06-2.89,0-3.79,0l1.42.09c-3.78-.1-3.74.33-7.5.26.46,0,1.13-.34-.78-.41a52.58,52.58,0,0,1-7.21.69l-.64-.09-2.55.05c1.59-.19,6.06-.57,8.49-.71a20.84,20.84,0,0,0-2.51-.13c-.75-.09,1.15-.1,1.78-.09l-4.94-.13c.22.17-3.78.11-3.59.25l5.36-.09c.22.17-3.1.43-6.6.34-.89-.08.67-.29.59-.34-.45,0-3.32,0-3.64,0l1.49-.07c-1.95-.09-3.19.17-5.52,0a23.84,23.84,0,0,0-2.56-.16c1.32.21,1.57.81.69.94-.29,0-4.24-.25-5.16-.36-1.33-.17,2-.33.87-.48a7.09,7.09,0,0,1-1.09.11c-.85-.06.35-.14-1.49-.15-.31.17-3.75-.07-.88.13-1.8,0-1.91-.06-4-.09.67.12-1.91.34-3.72.36.11,0-.3-.1-.49-.13l-9.13-.24c-.32,0-2-.12-1.27-.18-.5,0-.95.07-2,.06-2-.18,2.37,0,.81-.19-.14.1-2.75.09-4.27.13a40.88,40.88,0,0,0,5,.05c0,.21-2.64.39-6.25.43-2.86,0-1.24-.16-1.74-.14-5.37-.12-4.59.3-9,.07-1.77-.16-.08-.26-.47-.37,2.34,0,3.58.14,5.17.16l-2-.09c.74,0,2.3,0,3.15,0-1.49-.14-9.09-.17-13.24-.35-.74,0-2,.06-1.41.13h1.31c1.21.13-2.47.11-.81.19-1.76,0-3.74.13-6.22,0l-.46-.16a15.31,15.31,0,0,0,2.32.08c-1,.05-3.8-.26-4.94-.08l1.74.13c-1.77,0-4,.18-6.16.09,1,.17.51,0,2.07.2-1.35-.24,5.62.1,3.45-.17,1.6.23,2.77.13,4.86.34-.06-.05-.74-.11,1.11-.05a3.85,3.85,0,0,1,.4,0h0c.08,0,.08,0,0,0-.44,0-.8-.06-.94-.09.92-.1,3.85,0,4.85-.09s-.46,0,.13.11L45,48.82c.14.12,2.9.24.32.26l2.32,0c1.37.09,3.25.14,4.41.12s2.77-.08,1.81,0h3.64l0,0c3.59.07,7.39-.07,11.5.2,1.21,0,2.46,0,4.48,0l.39.1c1.55,0,4.66.17,5.33.08,1.67.29,7.54.18,10.27.27l.1-.13c1.88,0,3.68,0,6,0l-.14-.11c2-.06,5.17.16,8.35.2a12.67,12.67,0,0,1-1.6,0c3.8.31,8-.06,11.47.18.86,0,1.48,0,2.08,0h.14l1.2.08-1-.07h2.66l.41.12h.23c1,.06.78,0,.27-.14l1.3,0c.78.2,2.58,0,3.65.2.67-.09,5,0,5.48-.2,0,0,.33,0-.2,0,1.09,0,2.19.08,3.18,0l.46.17,2.4-.17c1.46.11,2.06.18.61.27,3.5-.12,2.84,0,5.81-.15l-.15.09c1.06,0,2.76-.09,3.4,0,2.37.23,11.75.22,17.84.49-1.17-.31,2.84.18,3.08,0,.36.08,1.2.13.22.17,1.55,0,2.72,0,3.77.07.52,0,1,0,1.51,0a5.83,5.83,0,0,1,1.37.13c.27.15-.59-.07-.34,0a2.59,2.59,0,0,1,1.06.41c.21.17-.37-.17-.78-.26a6.18,6.18,0,0,1,2.18,1.44,1.25,1.25,0,0,0,.73.36,17.91,17.91,0,0,0,2.46,2.59c.34.46.92,1.19-.44-.24.75.82,4.55,5,4.74,5,.21.29,1.05,1.15,1.26,1.35l1.76,1.92a5.12,5.12,0,0,0,2.22,1.52,5.65,5.65,0,0,1-.66-.31,10.2,10.2,0,0,0,1.67.41,4.39,4.39,0,0,0,2.45-.31l-.05,0a4.59,4.59,0,0,0,2-1.37,3.61,3.61,0,0,0,.56-.84,5.5,5.5,0,0,0,.37-.92,7.7,7.7,0,0,0,.25-2.32l-.12.24c-.26-.41.09-4-.05-6.54l-.06.93c-.11-1.41.29-4,.3-5.38,0-.31,0,.49.06.92.09-3.72-.16-.48-.24-3.25.07-.51.22.65.21-1.21.05-.93-.37-5.41-.25-8-.05.56-.11,1.12-.18-.16-.06-2,.16-5.34-.08-7.12,0-.25,0-.35,0-.36-.08-1.51-.17-4.9-.3-5.81.39-1.4-.36-9.37,0-9.35l-.1-4.64,0,.12a45.83,45.83,0,0,0-.24-5.05c0-.71.05-.19.08-.13a4.94,4.94,0,0,0-.78-2.73A4.88,4.88,0,0,0,191.82.8a4.93,4.93,0,0,0-1.71-.7,8.26,8.26,0,0,0-2.33,0L187.4,0c-1,.1-6.27,0-10.51.29a1.25,1.25,0,0,1,.46-.07c-4.78.29-11.46,0-13.19.52L161,1c4.09-.1-.6.21,1.08.23-1.6.08-4.15,0-2.18-.09l.31,0c.72-.26-5.07.08-5-.09l-23.39.62.88.16-2.63.07c-.69,0-.93-.11.94-.17a18.3,18.3,0,0,0-3.18.23c-3.67,0,1.42-.26.3-.23l-1.53.07H127c-1.23.11-1.34.19-3.59.26A7.88,7.88,0,0,1,122.09,2s0,0-.18,0l-.68,0-3.31.09,1.33.1c-1.47.12-3.11.09-1.58.21-2.25-.18-12.34.3-13.72.27-2,.17-4.07.23-6.58.3.62,0,1,.16-1.16.21.78-.36-4,0-5.73-.2,1.57.11-6.15.23-3.69.38-1.81,0-.11-.12-1.49-.16-4.29.27-9.47.22-14.79.44-.08,0,.81.08-.32.18l-2.82-.13a12.56,12.56,0,0,1-2.88.2c.28,0,.68.07,0,.1-10.42.12-21.27.86-31.85.79,1.43,0,.48.08-.62.12.71,0,0,.11.13.16L27.7,5c-.8.19-4.74.16-5.2.34l1.4-.08c-1.86.25,2.62.33,2.36.58,2.08-.28,5.51.14,8.92-.27.76,0-.64.09-.23.14a27,27,0,0,1,3.85-.2l-.21,0c5.45-.2,7.8-.17,13.93-.3l-.46-.11c1.32,0,1.6,0,2.21,0C55.78,5,50.57,5.28,52,5c1.75.19,9.29-.29,10.48-.06,2-.06-.6-.11,1.42-.18l.54.06.51-.11a7.43,7.43,0,0,1,2.06.1l-1.26.07c1.72,0,4.85-.19,5.45-.18l-2,0c5.53-.25,12.28-.37,17.62-.69l-.41,0c4.08-.23,3.27,0,7.75-.23H94c.9-.08,2.09-.15,3.32-.18-1.13.1,2.13.06.65.18a44.9,44.9,0,0,0,5.1-.46l.68.07a31.4,31.4,0,0,1,3.31-.26c-1.83.14,1.43.1-.62.27,4.7,0,7-.43,9.13-.2,2.15-.32-4.07,0-2.86-.11-1-.05,1.77-.24,3.25-.27s2.56.25,6.33.13l-.78,0c1.42,0,2.77-.18,4.5-.13a20.11,20.11,0,0,0,2.53-.27l-3.46.16c2-.12,3.79-.41,7-.4-.25.05-1.21.13-1.87.18.94,0,1.81-.09,2.8-.06-.28.2-4.21.17-6.31.39,1,0,4-.27,2.93,0,1.51-.32,3.72-.09,6.26-.37l-.16.12c.4,0,1.24-.12,2-.14l-1.34.2c2.07-.2,4,0,6-.15-4.15.14-.93-.11-2.69-.14,5.12-.32,3,.22,8.69,0-.78,0-2.92,0-1.71-.08s2.54,0,3.21,0c3.8-.14-.58-.1,1-.22a23.42,23.42,0,0,0,3.53-.22l0,.12c4.33-.06,1.14-.29,5-.32l-1.64.22,2-.11-.42.15c2.21-.17,2.9-.17,5.07-.2-.51-.07.28-.23,2.19-.29,1.31,0-.72.14,2,0a9.76,9.76,0,0,1-2.46.14c-.12,0-.61.1-.73.14,1.41,0,3.54-.1,4.53-.13-.38,0-.84,0-1.07,0l3.94-.3c.62,0,.13.08-.36.13.8,0,1.35-.11,2.52-.16-.3.11-.22.21-1.88.31L177,1.39c.25,0,1.93.06,1.45.11,2.08,0,5.1-.36,7.86-.37.14,0,.43,0,1-.08s1.33,0,1.85,0a4,4,0,0,1,1.55.42,4.29,4.29,0,0,1,2.16,2.69,4.57,4.57,0,0,1,0,.74l-.07.87c.08,2.41.18-2.36.31,1.65.1,2.84-.13,1.06-.16,2.06a54.33,54.33,0,0,1,.23,6.47C193.1,15.08,193.12,14.4,193.09,13.59Zm.57,29.72a16.07,16.07,0,0,1-.06-2.15A8.1,8.1,0,0,1,193.66,43.31Zm-18.45,8a6.76,6.76,0,0,1,1.29,1.35C176.11,52.27,175.75,51.79,175.21,51.3ZM49.45,49.08h.06C50.79,49.14,50.34,49.12,49.45,49.08ZM46.78,49c-.27,0-.25,0-.14,0a13.52,13.52,0,0,1,1.47,0A6.31,6.31,0,0,0,46.78,49Zm75-47,.52,0C121.14,2.11,121.47,2.07,121.79,2Z"/><path class="cls-3" d="M178.88,54.93c.09.14.11.18.11.23C179.16,55.31,179.18,55.3,178.88,54.93Z"/><path class="cls-3" d="M186.35,1.13h-.09l-.09,0Z"/><path class="cls-3" d="M88.11,48.62c.55,0,.86.06,1.06.08C89.2,48.67,89,48.65,88.11,48.62Z"/><path class="cls-3" d="M32.64,49h1.71c-.82,0-1.12,0-1.54-.06C32.85,48.93,33.18,49,32.64,49Z"/><path class="cls-3" d="M17.83,48h-.78l.07,0C18.18,48.06,18.93,48,17.83,48Z"/><path class="cls-3" d="M31.07,48.54a12.37,12.37,0,0,0-2.4-.09h.21C28.52,48.59,29.8,48.57,31.07,48.54Z"/><path class="cls-3" d="M28.39,48.45H27.28A4.35,4.35,0,0,0,28.39,48.45Z"/><path class="cls-3" d="M43.4,49c-.57,0-.36.12-.68.08C42.08,49.2,46.5,49,43.4,49Z"/><polygon class="cls-3" points="30.11 48.19 30.53 48.32 31.2 48.23 30.11 48.19"/><path class="cls-3" d="M39.55,48.43l-1.91-.06a1.71,1.71,0,0,1-.51,0C38.31,48.43,39.6,48.47,39.55,48.43Z"/><path class="cls-3" d="M37.13,48.4c-.62,0-1.2,0-1.54,0Z"/><polygon class="cls-3" points="32.72 48.2 33.28 48.23 34.63 48.26 32.72 48.2"/><path class="cls-3" d="M60.11,48.79H62.2c.21,0-.36-.07-1.14-.07C60.56,48.74,59.79,48.74,60.11,48.79Z"/><path class="cls-3" d="M53.8,48.34a9.26,9.26,0,0,1,.92.11l.07-.15Z"/><path class="cls-3" d="M59.89,48.4c.21,0,3-.07.38-.1C60.06,48.34,58,48.34,59.89,48.4Z"/><polygon class="cls-3" points="91.33 49.1 90.8 49.1 90.87 49.35 91.33 49.1"/><path class="cls-3" d="M119.06,48.94c-2.48-.1-.59.14-2.83,0-.58.05,1.83.09,1.23.14C119,49.07,119.74,49.11,119.06,48.94Z"/><path class="cls-3" d="M117.46,49.11l-.76,0Z"/><polygon class="cls-3" points="24.73 4.99 23.14 4.99 24.17 5.04 24.73 4.99"/><path class="cls-3" d="M21.69,5.28l-.38-.15-.95.18A12.23,12.23,0,0,1,21.69,5.28Z"/><path class="cls-3" d="M193.41,47.73l0,.12a9.42,9.42,0,0,0,0-1.36Z"/><polygon class="cls-3" points="193.17 26.16 193.18 26.53 193.31 25.84 193.17 26.16"/><path class="cls-3" d="M192.68,8.06c0,.74,0,1.61.06,2.35C192.69,8.8,192.86,7.86,192.68,8.06Z"/></g></g></g></svg>