<svg xmlns="http://www.w3.org/2000/svg" xmlns:xlink="http://www.w3.org/1999/xlink" viewBox="0 0 122.86 155.85"><defs><style>.cls-1{fill:#f3c480;}.cls-2{fill:#34503c;}.cls-3{isolation:isolate;}.cls-4{opacity:0.5;mix-blend-mode:multiply;}.cls-5{fill:#303030;}.cls-6{fill:#fff;}.cls-7{fill:#33503c;}.cls-8{clip-path:url(#clip-path);}.cls-9{fill:#c08a43;}.cls-10{fill:#f2b05f;}.cls-11{clip-path:url(#clip-path-2);}.cls-12{fill:#28221a;}</style><clipPath id="clip-path"><rect class="cls-1" x="25.03" y="27.66" width="82.13" height="112.52" rx="10.78" transform="translate(-14.42 13.72) rotate(-10.69)"/></clipPath><clipPath id="clip-path-2"><path class="cls-2" d="M49.13,27.35c.34-1.87-2.81-3-4.56-4-6.61-3.64-14.93-4.11-21.37.2A20.92,20.92,0,0,0,14.41,44.8a18.93,18.93,0,0,0,1.48,4.33c.78,1.62,2.22,5.3,4.66,4.47a5.07,5.07,0,0,0,1.7-1.17L48,29A3.13,3.13,0,0,0,49.13,27.35Z"/></clipPath></defs><g class="cls-3"><g id="Layer_2" data-name="Layer 2"><g id="Layer_1-2" data-name="Layer 1"><g class="cls-4"><path class="cls-5" d="M122.6,123.5,105.73,34.12A14.57,14.57,0,0,0,91,22.2a14.08,14.08,0,0,0-2.41.25l-1.72.32-1.55-7.28A15.48,15.48,0,0,0,69.9,3.23a15.07,15.07,0,0,0-3.2.4L51.8,7.1A15.42,15.42,0,0,0,40,20,23.28,23.28,0,0,0,25,23.6,24.92,24.92,0,0,0,14.56,48.82c.46,2.15-.38,3.17-1.48,5-1,1.59-3.77,5.25-4.54,7-1.82,4.05-2.39,8.12-.39,12.47a9.37,9.37,0,0,1-2.71,3.7,3.86,3.86,0,0,0,2.43,6.92,3.79,3.79,0,0,0,1.35-.28l.19-.07a3.83,3.83,0,0,0,3.07,2h.24c-.36,4-1.46,7.25-3.3,9.52a3.86,3.86,0,0,0,4.37,6c.38-.14.79-.29,1.22-.43a9.1,9.1,0,0,0,3.3,1.57,3.74,3.74,0,0,0,1,.12,3.86,3.86,0,0,0,3.48-2.38,48.46,48.46,0,0,0,2.44-7.66l9.05,47.94A14.59,14.59,0,0,0,49,152.09a15.18,15.18,0,0,0,2.41-.26l3.63-.68a8.78,8.78,0,0,0,7,4.66c.33,0,.67,0,1,0a8.86,8.86,0,0,0,8.6-7.84l25-4.72a8.83,8.83,0,0,0,6.8,4.28c.33,0,.67,0,1,0A8.85,8.85,0,0,0,113,140a14.63,14.63,0,0,0,9.56-16.54Z"/></g><path class="cls-6" d="M118.68,120.28,101.8,30.89A14.59,14.59,0,0,0,87.12,19a15.18,15.18,0,0,0-2.42.26L83,19.55l-1.55-7.29A15.51,15.51,0,0,0,66,0a15.85,15.85,0,0,0-3.2.41L47.87,3.88A15.44,15.44,0,0,0,36,16.77a24.26,24.26,0,0,0-3-.12,22.42,22.42,0,0,0-12,3.73A24.89,24.89,0,0,0,10.64,45.6c.45,2.15-.38,3.16-1.48,4.95-1,1.59-3.78,5.25-4.54,7C2.79,61.56,2.22,65.63,4.23,70a9.46,9.46,0,0,1-2.72,3.7A3.86,3.86,0,0,0,5.3,80.32l.18-.07a3.86,3.86,0,0,0,3.07,2h.24c-.36,4-1.46,7.24-3.3,9.52a3.86,3.86,0,0,0,4.37,6c.38-.15.79-.29,1.22-.43a9.1,9.1,0,0,0,3.3,1.57,3.74,3.74,0,0,0,1,.12,3.85,3.85,0,0,0,3.48-2.38A47.45,47.45,0,0,0,21.34,89l9.05,47.94a14.57,14.57,0,0,0,14.69,11.92,14,14,0,0,0,2.41-.25l3.63-.68a8.82,8.82,0,0,0,7,4.66,8.41,8.41,0,0,0,1,0,8.83,8.83,0,0,0,8.6-7.83l25-4.72a8.86,8.86,0,0,0,6.8,4.28c.34,0,.67,0,1,0a8.85,8.85,0,0,0,8.56-7.57,14.67,14.67,0,0,0,9.57-16.54Z"/><path class="cls-7" d="M63.92,144.23a5,5,0,1,1-4.52-5.42A5,5,0,0,1,63.92,144.23Z"/><path class="cls-7" d="M105.33,136a5,5,0,1,1-4.52-5.42A5,5,0,0,1,105.33,136Z"/><path class="cls-1" d="M44.18,38a1.69,1.69,0,0,1-1-.29,1.57,1.57,0,0,1-.68-1.13l-.63-5.36-2-10A11.59,11.59,0,0,1,48.74,7.63l14.9-3.47a11.65,11.65,0,0,1,14,8.91l3.1,14.56a1.61,1.61,0,0,1-1.19,1.9l-35,8.38A2.15,2.15,0,0,1,44.18,38ZM66.12,7.07a8.06,8.06,0,0,0-1.75.22l-14.9,3.47a8.39,8.39,0,0,0-6.36,9.82l2,10a.5.5,0,0,0,0,.12l.42,3.63,31.78-7.6-2.78-13a8.41,8.41,0,0,0-8.4-6.67Z"/><rect class="cls-1" x="25.03" y="27.66" width="82.13" height="112.52" rx="10.78" transform="translate(-14.42 13.72) rotate(-10.69)"/><g class="cls-8"><path class="cls-9" d="M31.42,65.16a1,1,0,0,1-1-.79,1,1,0,0,1,.77-1.12L93,51.55a1,1,0,0,1,.36,1.89L31.58,65.14Z"/><path class="cls-9" d="M33,78.73a1,1,0,0,1-1-.79,1,1,0,0,1,.77-1.12l61.75-11.7A1,1,0,1,1,94.88,67L33.14,78.71Z"/><path class="cls-9" d="M35.59,92.57a1,1,0,0,1-1-.78,1,1,0,0,1,.76-1.13L97.14,79a1,1,0,0,1,1.12.77,1,1,0,0,1-.76,1.12L35.75,92.56Z"/><path class="cls-9" d="M38.37,107.29a1,1,0,0,1-1-.79,1,1,0,0,1,.77-1.12l61.75-11.7a1,1,0,0,1,.36,1.89l-61.75,11.7Z"/><path class="cls-9" d="M40.52,120.48a1,1,0,0,1-.2-1.91l61.75-11.7a1,1,0,0,1,1.12.76,1,1,0,0,1-.76,1.13l-61.75,11.7Z"/></g><path class="cls-2" d="M7,63.07c-.3,3.46.68,6.88,3.68,8.34,4.36,2.11,9.21-1.5,12.69-4.87,8-7.77,16.67-14.9,24.9-22.47,5.86-5.39,18.92-14.69,19.29-23.4.21-5-4.92-5.43-8.79-4.23-11.82,3.68-22.3,11-31.34,19.32C20.25,42.33,7.85,52.72,7,63.07Z"/><path class="cls-10" d="M17.84,51.64c-2.93,1.31-5.08,4.88-6.28,7.85S9.8,65.65,8.83,68.7s-2.43,6.1-5,8c.93-.37,2.88-.91,3.81-1.29.33.73.85,2.2,1.18,2.92,2.69-4.09,4.1-16.56,6.32-20.93a10,10,0,0,1,3.42-4.15A1.06,1.06,0,0,0,17.84,51.64Z"/><path class="cls-1" d="M21.39,49.56a13.37,13.37,0,0,0-4.36,10c0,4,1,7.82,1.43,11.75a48.43,48.43,0,0,1-3.12,23.86,4.36,4.36,0,0,1-3.06-2.33c-1.22.46-2.57.86-3.78,1.32,3.23-4,4.22-9.4,4.28-14.56s-.72-10.3-.52-15.45.71-9.95,4.28-13.67C17.09,49.91,20.67,49.93,21.39,49.56Z"/><path class="cls-2" d="M49.13,27.35c.34-1.87-2.81-3-4.56-4-6.61-3.64-14.93-4.11-21.37.2A20.92,20.92,0,0,0,14.41,44.8a18.93,18.93,0,0,0,1.48,4.33c.78,1.62,2.22,5.3,4.66,4.47a5.07,5.07,0,0,0,1.7-1.17L48,29A3.13,3.13,0,0,0,49.13,27.35Z"/><g class="cls-11"><path class="cls-1" d="M46.06,23A259.23,259.23,0,0,1,26.47,42C20.05,47.65,13.13,54.28,4.94,57.14.67,58.63,2.65,65.4,7,63.9c8.75-3.06,15.92-9.52,22.85-15.47A259.34,259.34,0,0,0,51.16,27.84C54.24,24.51,49.15,19.62,46.06,23Z"/></g><path class="cls-12" d="M68.44,42.12l.72,4.36a3.16,3.16,0,0,0,3.71,2.59l13.18-2.48a3.16,3.16,0,0,0,2.49-3.84l-1-4.07A3.16,3.16,0,0,0,84,36.3L71,38.48A3.17,3.17,0,0,0,68.44,42.12Z"/></g></g></g></svg>