<svg xmlns="http://www.w3.org/2000/svg" viewBox="0 0 78.34 99.45"><defs><style>.cls-1{isolation:isolate;}.cls-2{opacity:0.5;mix-blend-mode:multiply;}.cls-3{fill:#333;}.cls-4{fill:#fff;}.cls-5{fill:#f3c480;}.cls-6{fill:#094156;}</style></defs><g class="cls-1"><g id="Layer_2" data-name="Layer 2"><g id="Layer_1-2" data-name="Layer 1"><g class="cls-2"><path class="cls-3" d="M76.1,11.31a9.81,9.81,0,0,0-6.67-3.57L32,4.05l-.29,0A9.84,9.84,0,0,0,21.4,11.67l-.22,0-.43,0a4.81,4.81,0,0,0-5.08,4.05L5.06,83.14a4.81,4.81,0,0,0,4,5.5l5.67.89A9.94,9.94,0,0,0,23,95.71L60.39,99.4l.29,0a9.83,9.83,0,0,0,10.51-8.89l7.11-72A9.79,9.79,0,0,0,76.1,11.31Z"/></g><path class="cls-4" d="M71.1,7.31a9.81,9.81,0,0,0-6.67-3.57L27,.05l-.29,0A9.84,9.84,0,0,0,16.4,7.67l-.22,0-.43,0a4.81,4.81,0,0,0-5.08,4.05L.06,79.14a4.81,4.81,0,0,0,4,5.5l5.67.89A9.94,9.94,0,0,0,18,91.71L55.39,95.4l.29,0a9.83,9.83,0,0,0,10.51-8.89l7.11-72A9.79,9.79,0,0,0,71.1,7.31Z"/><rect class="cls-5" x="-0.04" y="23.85" width="82.48" height="47.75" rx="5.07" transform="translate(-10.34 84.04) rotate(-84.37)"/><path class="cls-6" d="M15.43,12.39,4.82,79.88l41.31,6.5a7.29,7.29,0,0,0,8.32-6L62.8,27.2a7.27,7.27,0,0,0-6-8.31Z"/><path class="cls-4" d="M35.92,40.12a10,10,0,1,1-11.38,8.29,10,10,0,0,1,11.38-8.29m.12-.79a10.75,10.75,0,1,0,9,12.29,10.76,10.76,0,0,0-9-12.29Z"/><path class="cls-4" d="M32.36,59.85c-.5-.07-1-.66-1.29-1.05A12.59,12.59,0,0,1,28.4,49a12.56,12.56,0,0,1,7.35-9.37.41.41,0,0,1,.4.06.41.41,0,0,1,.15.37c-.31,2-.62,4-.92,6-.6,3.94-1.22,8-1.88,12-.14.85-.3,1.41-.69,1.64A.61.61,0,0,1,32.36,59.85Zm3-19.14a11.73,11.73,0,0,0-6.21,8.44A11.49,11.49,0,0,0,30,55.39a11.67,11.67,0,0,0,1.73,2.91,3.46,3.46,0,0,0,.74.75,3.2,3.2,0,0,0,.28-1c.66-4,1.28-8.07,1.88-12C34.86,44.23,35.12,42.47,35.4,40.71Z"/><path class="cls-4" d="M32.65,60.18a.72.72,0,0,1-.2-.09.42.42,0,0,1-.13-.37v0L35.4,40.05h0a.4.4,0,0,1,.76-.09c.13.16.67.68,1,1s.76.74.86.86a11.32,11.32,0,0,1,1.57,2.93,11.46,11.46,0,0,1,.45,6.32c-1,4.55-3.62,7.85-7.24,9.06A.41.41,0,0,1,32.65,60.18ZM36.06,41,33.21,59.17c3-1.28,5.23-4.24,6.09-8.24a10.64,10.64,0,0,0-.42-5.88,10.79,10.79,0,0,0-1.46-2.72c-.07-.08-.48-.47-.77-.76Zm.13-.83Z"/><path class="cls-4" d="M35.25,46a15.21,15.21,0,0,1-7.75-3.64.4.4,0,1,1,.53-.59,14.53,14.53,0,0,0,15.08,2.54.4.4,0,0,1,.52.22.39.39,0,0,1-.21.52A15.2,15.2,0,0,1,35.25,46Z"/><path class="cls-4" d="M24.11,48.88a.41.41,0,0,1-.34-.42.4.4,0,0,1,.42-.38,97.28,97.28,0,0,1,20.45,3.15.4.4,0,1,1-.2.77,96.5,96.5,0,0,0-20.29-3.12Z"/><path class="cls-4" d="M25.43,55.47a.41.41,0,0,1-.31-.25.4.4,0,0,1,.23-.52A16.8,16.8,0,0,1,41.5,56.92a.39.39,0,0,1,.08.56.4.4,0,0,1-.56.08,16,16,0,0,0-15.38-2.11A.5.5,0,0,1,25.43,55.47Z"/><path class="cls-4" d="M38.56,71.77,23.65,69.42a1.89,1.89,0,0,1-1.58-2.17h0a1.9,1.9,0,0,1,2.18-1.59L39.15,68a1.91,1.91,0,0,1,1.59,2.18h0A1.91,1.91,0,0,1,38.56,71.77Z"/><path class="cls-4" d="M25.35,25.46l-.59,3.75-.91-.14.59-3.75ZM25,25.41l.73.11a1.84,1.84,0,0,1,.78.28,1.12,1.12,0,0,1,.43.49,1.42,1.42,0,0,1-.21,1.32,1.11,1.11,0,0,1-.56.34,1.85,1.85,0,0,1-.82,0l-.74-.11.12-.75.73.12a.64.64,0,0,0,.45-.06.39.39,0,0,0,.21-.33.42.42,0,0,0-.09-.38.72.72,0,0,0-.41-.19l-.74-.12Z"/><path class="cls-4" d="M28.11,28.55v.2l-.62.9-1-.17,2.6-3.68,1.35,4.31-1-.17-.3-1,.06-.23-.34-1.3Zm-.35-.32,1.86.3-.05.7-2-.31Z"/><path class="cls-4" d="M31.71,29.32a1,1,0,0,0,.27.28.83.83,0,0,0,.34.13.57.57,0,0,0,.35,0,.37.37,0,0,0,.17-.25.4.4,0,0,0,0-.25.64.64,0,0,0-.22-.21l-.41-.25a2.55,2.55,0,0,1-.28-.18,1.58,1.58,0,0,1-.3-.28,1,1,0,0,1-.2-.37,1.11,1.11,0,0,1,.23-1,1.15,1.15,0,0,1,.53-.29,1.76,1.76,0,0,1,.69,0,1.48,1.48,0,0,1,.63.23,1.37,1.37,0,0,1,.41.38,1.7,1.7,0,0,1,.22.42l-.76.28a1.08,1.08,0,0,0-.14-.26.76.76,0,0,0-.21-.19.64.64,0,0,0-.26-.1.51.51,0,0,0-.31,0,.25.25,0,0,0-.13.19.29.29,0,0,0,.06.25,1.23,1.23,0,0,0,.26.22l.42.24a4,4,0,0,1,.34.23,1.42,1.42,0,0,1,.26.29.86.86,0,0,1,.16.35,1.23,1.23,0,0,1,0,.43,1.13,1.13,0,0,1-.2.49,1,1,0,0,1-.37.32,1.24,1.24,0,0,1-.48.16,1.51,1.51,0,0,1-.52,0,1.79,1.79,0,0,1-1.15-.68,1.79,1.79,0,0,1-.28-.55l.71-.36A1.66,1.66,0,0,0,31.71,29.32Z"/><path class="cls-4" d="M35.12,29.85a.93.93,0,0,0,.28.28.73.73,0,0,0,.34.14.48.48,0,0,0,.34-.05.29.29,0,0,0,.17-.25.32.32,0,0,0,0-.24.74.74,0,0,0-.22-.21l-.41-.25-.29-.18a1.9,1.9,0,0,1-.29-.28,1.23,1.23,0,0,1-.21-.37,1.13,1.13,0,0,1,0-.49A1,1,0,0,1,35,27.4a1.1,1.1,0,0,1,.53-.29,1.71,1.71,0,0,1,.68,0,1.62,1.62,0,0,1,.63.22,1.28,1.28,0,0,1,.41.39,1.22,1.22,0,0,1,.22.42l-.75.28a.93.93,0,0,0-.15-.26,1,1,0,0,0-.2-.2.79.79,0,0,0-.27-.1.47.47,0,0,0-.3,0,.26.26,0,0,0-.14.19.3.3,0,0,0,.07.24.79.79,0,0,0,.25.22l.42.25a2.12,2.12,0,0,1,.35.23,1.2,1.2,0,0,1,.26.29,1,1,0,0,1,.16.35,1.22,1.22,0,0,1,0,.43,1.13,1.13,0,0,1-.2.49,1.14,1.14,0,0,1-.37.32,1.6,1.6,0,0,1-.48.16,1.81,1.81,0,0,1-.52,0,1.79,1.79,0,0,1-1.15-.68,1.91,1.91,0,0,1-.28-.55l.7-.36A1.78,1.78,0,0,0,35.12,29.85Z"/><path class="cls-4" d="M39.22,27.64l-.6,3.75-.9-.14.59-3.75Zm-.34-.05.73.11a1.84,1.84,0,0,1,.78.28,1.12,1.12,0,0,1,.43.49,1.42,1.42,0,0,1-.21,1.32,1.11,1.11,0,0,1-.56.34,1.85,1.85,0,0,1-.82,0L38.49,30l.12-.75.73.12a.64.64,0,0,0,.45-.06.49.49,0,0,0,.11-.71.66.66,0,0,0-.41-.19l-.73-.12Z"/><path class="cls-4" d="M41.48,29.11a1.89,1.89,0,0,1,1.23-.86,2.31,2.31,0,0,1,.83,0,2.43,2.43,0,0,1,.77.27,1.78,1.78,0,0,1,.58.51,1.72,1.72,0,0,1,.33.68,2,2,0,0,1,0,.82,2,2,0,0,1-.79,1.35,1.92,1.92,0,0,1-.7.31,2.15,2.15,0,0,1-.84,0,2.25,2.25,0,0,1-.79-.28,1.75,1.75,0,0,1-.57-.51,1.79,1.79,0,0,1-.32-.7,2.24,2.24,0,0,1,0-.82A2.08,2.08,0,0,1,41.48,29.11Zm.72,1.53a1,1,0,0,0,.31.45,1,1,0,0,0,.54.24,1.12,1.12,0,0,0,.58-.06,1,1,0,0,0,.43-.34,1.31,1.31,0,0,0,.22-.57,1.24,1.24,0,0,0,0-.61,1,1,0,0,0-.3-.45,1.2,1.2,0,0,0-.55-.24,1.12,1.12,0,0,0-.58.06,1,1,0,0,0-.43.34,1.32,1.32,0,0,0-.23.57A1.37,1.37,0,0,0,42.2,30.64Z"/><path class="cls-4" d="M47.09,28.88l-.59,3.75-.91-.14.59-3.75Zm-.34-.05.8.12a2,2,0,0,1,.78.28,1.14,1.14,0,0,1,.42.51,1.35,1.35,0,0,1,.07.67,1.26,1.26,0,0,1-.27.61,1.12,1.12,0,0,1-.56.35,1.87,1.87,0,0,1-.83,0l-.79-.12.11-.71.73.12a.68.68,0,0,0,.32,0,.44.44,0,0,0,.23-.13.44.44,0,0,0,.11-.26.46.46,0,0,0-.2-.47.67.67,0,0,0-.31-.11l-.73-.12Zm1,2.26.9,1.88-1.06-.17-.78-1.86Z"/><path class="cls-4" d="M49.34,29.23l3,.47-.13.81-1-.16-.46,2.94-.91-.14.46-2.95-1-.16Z"/></g></g></g></svg>